<svg xmlns="http://www.w3.org/2000/svg" width="860" height="720" viewBox="0 0 860 720" role="img" aria-hidden="true">
  <defs>
    <linearGradient id="rb1" x1="0" y1="0" x2="1" y2="0">
      <stop offset="0%" stop-color="#ffe8aa"/>
      <stop offset="100%" stop-color="#ffe8aa"/>
    </linearGradient>
    <linearGradient id="rb2" x1="0" y1="0" x2="1" y2="0">
      <stop offset="0%" stop-color="#cde8b6"/>
      <stop offset="100%" stop-color="#cde8b6"/>
    </linearGradient>
    <linearGradient id="rb3" x1="0" y1="0" x2="1" y2="0">
      <stop offset="0%" stop-color="#bfdcf3"/>
      <stop offset="100%" stop-color="#bfdcf3"/>
    </linearGradient>
    <linearGradient id="rb4" x1="0" y1="0" x2="1" y2="0">
      <stop offset="0%" stop-color="#d4c5ef"/>
      <stop offset="100%" stop-color="#d4c5ef"/>
    </linearGradient>
  </defs>
  <g opacity="0.58">
    <path d="M420 352a238 238 0 0 1 238-238v48a190 190 0 0 0-190 190z" fill="url(#rb1)"/>
    <path d="M456 352a202 202 0 0 1 202-202v42a160 160 0 0 0-160 160z" fill="url(#rb2)"/>
    <path d="M492 352a166 166 0 0 1 166-166v36a130 130 0 0 0-130 130z" fill="url(#rb3)"/>
    <path d="M526 352a132 132 0 0 1 132-132v30a102 102 0 0 0-102 102z" fill="url(#rb4)"/>
  </g>
  <g fill="#fff6f5" opacity="0.74">
    <path d="M286 440c0-50 40-90 90-90 13 0 26 3 38 8 14-30 45-50 82-50 47 0 86 33 95 77 5-2 11-3 17-3 35 0 63 28 63 63H286z"/>
    <path d="M398 478c0-40 32-72 72-72 14 0 27 4 38 11 13-23 38-38 67-38 38 0 70 27 76 63 3-1 6-2 10-2 28 0 50 22 50 50H398z" opacity="0.9"/>
    <path d="M546 508c0-28 22-50 50-50 7 0 14 1 20 4 8-17 25-28 45-28 26 0 47 18 52 42 2 0 4-1 6-1 19 0 35 16 35 35H546z" opacity="0.82"/>
  </g>
</svg>
