<svg xmlns="http://www.w3.org/2000/svg" width="980" height="760" viewBox="0 0 980 760" role="img" aria-hidden="true">
  <defs>
    <radialGradient id="capA" cx="50%" cy="32%" r="68%">
      <stop offset="0%" stop-color="#ff8bb7"/>
      <stop offset="100%" stop-color="#df4f88"/>
    </radialGradient>
    <radialGradient id="capB" cx="50%" cy="34%" r="70%">
      <stop offset="0%" stop-color="#ff9fc0"/>
      <stop offset="100%" stop-color="#e15f95"/>
    </radialGradient>
  </defs>
  <g opacity="0.62">
    <ellipse cx="242" cy="666" rx="240" ry="72" fill="#c99db4" opacity="0.46"/>
    <ellipse cx="402" cy="678" rx="176" ry="58" fill="#c99db4" opacity="0.4"/>
    <ellipse cx="136" cy="684" rx="118" ry="44" fill="#c99db4" opacity="0.35"/>
  </g>

  <g opacity="0.72">
    <path d="M92 534c0-118 96-214 214-214 92 0 170 58 200 140-26 8-58 12-100 12-186 0-266 42-314 112z" fill="url(#capA)"/>
    <path d="M190 472h118c-4 88 4 130 26 186H192c22-58 30-98-2-186z" fill="#f7dcc8"/>
    <ellipse cx="226" cy="380" rx="22" ry="16" fill="#ffe8f2"/>
    <ellipse cx="304" cy="414" rx="18" ry="14" fill="#ffe8f2"/>
    <ellipse cx="146" cy="430" rx="16" ry="12" fill="#ffe8f2"/>
  </g>

  <g opacity="0.66">
    <path d="M328 606c0-78 62-142 140-142 60 0 112 32 130 80-16 5-35 8-60 8-122 0-176 28-210 54z" fill="url(#capB)"/>
    <path d="M394 554h74c-2 58 3 86 16 126h-92c13-38 18-66 2-126z" fill="#f4d7c4"/>
    <ellipse cx="430" cy="492" rx="14" ry="10" fill="#ffe8f2"/>
    <ellipse cx="474" cy="514" rx="12" ry="9" fill="#ffe8f2"/>
  </g>

  <g opacity="0.64">
    <path d="M486 632c0-56 46-102 102-102 44 0 82 24 96 60-12 4-26 6-44 6-90 0-130 20-154 36z" fill="url(#capA)"/>
    <path d="M534 596h56c-2 42 2 62 12 90h-70c10-28 12-48 2-90z" fill="#f5d8c5"/>
  </g>
</svg>
